PathFileType	4	(X/Y/Z)	C:/Users/empri/Downloads/Take 2024-05-09 02.19.33 PM.trc
DataRate	CameraRate	NumFrames	NumMarkers	Units	OrigDataRate	OrigDataStartFrame	OrigNumFrames
240	240	30	9	mm	240	105	841
Frame#	Time	C7	CLAV	RELB	RFIN	RFRM	RSHO	RUPA	RWRA	RWRB
X1	Y1	Z1	X2	Y2	Z2	X3	Y3	Z3	X4	Y4	Z4	X5	Y5	Z5	X6	Y6	Z6	X7	Y7	Z7	X8	Y8	Z8	X9	Y9	Z9
105	0.438	-126.844	1541.35	-49.2916	31.2385	1363.19	-143.273	93.4639	1143.68	131.955	162.965	840.272	18.5857	99.0725	1018.2	146.222	24.5972	1481.37	65.1245	60.6347	1321.42	132.228	117.181	916.005	30.916	84.127	884.147	115.65
106	0.442	-126.847	1541.37	-49.3012	31.2402	1363.19	-143.275	93.4778	1143.69	131.962	162.968	840.258	18.6277	99.0763	1018.22	146.245	24.5965	1481.38	65.1116	60.6487	1321.44	132.227	117.181	916	30.9476	84.1346	884.162	115.692
107	0.446	-126.842	1541.36	-49.3193	31.2452	1363.17	-143.279	93.493	1143.7	131.974	162.985	840.243	18.6735	99.1003	1018.23	146.275	24.6016	1481.38	65.1006	60.6747	1321.45	132.239	117.182	915.986	30.971	84.1374	884.191	115.747
108	0.45	-126.835	1541.34	-49.3302	31.2495	1363.16	-143.29	93.5104	1143.7	131.977	162.989	840.231	18.7121	99.1136	1018.23	146.287	24.607	1481.38	65.0894	60.6831	1321.45	132.234	117.198	915.982	31.0006	84.1459	884.184	115.773
109	0.454	-126.832	1541.34	-49.3406	31.2548	1363.16	-143.305	93.5201	1143.7	131.979	163.004	840.227	18.7412	99.1238	1018.24	146.303	24.6167	1481.38	65.0702	60.6797	1321.45	132.202	117.208	915.984	31.0279	84.1432	884.177	115.795
110	0.458	-126.832	1541.34	-49.3543	31.2526	1363.17	-143.319	93.5318	1143.72	131.985	163.008	840.226	18.7805	99.1229	1018.24	146.329	24.618	1481.4	65.0555	60.6872	1321.46	132.194	117.216	915.999	31.0488	84.1484	884.189	115.83
111	0.462	-126.829	1541.36	-49.3654	31.2571	1363.17	-143.327	93.5446	1143.73	131.989	163.006	840.225	18.8145	99.1412	1018.26	146.339	24.6237	1481.41	65.0441	60.6995	1321.48	132.201	117.221	915.997	31.0798	84.1537	884.212	115.864
112	0.467	-126.816	1541.34	-49.3757	31.2578	1363.17	-143.337	93.5511	1143.74	131.997	163.023	840.221	18.8584	99.1545	1018.28	146.366	24.6275	1481.41	65.0289	60.7165	1321.48	132.186	117.213	915.98	31.1181	84.1705	884.223	115.906
113	0.471	-126.808	1541.34	-49.3883	31.2658	1363.15	-143.343	93.5657	1143.74	132.005	163.032	840.226	18.8934	99.1644	1018.28	146.384	24.6321	1481.4	65.0162	60.7286	1321.49	132.19	117.209	915.967	31.1489	84.1778	884.224	115.938
114	0.475	-126.816	1541.36	-49.4011	31.263	1363.16	-143.354	93.5708	1143.75	132.004	163.033	840.222	18.9136	99.1688	1018.29	146.397	24.6397	1481.4	64.9995	60.733	1321.5	132.182	117.21	915.976	31.1625	84.189	884.231	115.965
115	0.479	-126.802	1541.34	-49.4153	31.2776	1363.15	-143.359	93.5842	1143.76	132.006	163.041	840.228	18.9412	99.1789	1018.29	146.412	24.6419	1481.4	64.9874	60.7411	1321.5	132.165	117.227	915.98	31.1796	84.1962	884.242	115.987
116	0.483	-126.797	1541.34	-49.4249	31.2806	1363.15	-143.367	93.603	1143.76	132.008	163.038	840.227	18.9601	99.1984	1018.29	146.425	24.6524	1481.41	64.9739	60.7489	1321.5	132.159	117.227	915.985	31.202	84.2103	884.245	116.003
117	0.488	-126.791	1541.34	-49.4417	31.2828	1363.14	-143.373	93.6135	1143.77	132.024	163.045	840.224	18.9869	99.2138	1018.3	146.448	24.6552	1481.41	64.9603	60.764	1321.51	132.152	117.222	915.97	31.2352	84.2283	884.257	116.031
118	0.492	-126.796	1541.35	-49.4525	31.2848	1363.14	-143.372	93.6169	1143.76	132.037	163.039	840.218	19.0067	99.2198	1018.31	146.465	24.6587	1481.41	64.9525	60.766	1321.52	132.166	117.222	915.961	31.2587	84.2347	884.276	116.069
119	0.496	-126.787	1541.34	-49.4616	31.2822	1363.13	-143.388	93.6225	1143.76	132.043	163.04	840.201	19.0233	99.2218	1018.3	146.48	24.662	1481.41	64.9437	60.7725	1321.51	132.164	117.215	915.948	31.2819	84.2377	884.28	116.09
120	0.5	-126.792	1541.34	-49.4712	31.2793	1363.12	-143.396	93.6319	1143.76	132.056	163.036	840.199	19.0417	99.2285	1018.3	146.484	24.6605	1481.4	64.9392	60.7683	1321.52	132.159	117.223	915.952	31.2954	84.23	884.279	116.11
121	0.504	-126.787	1541.34	-49.4852	31.2902	1363.12	-143.407	93.6344	1143.76	132.065	163.045	840.21	19.0574	99.2428	1018.3	146.495	24.6611	1481.41	64.9229	60.7655	1321.52	132.148	117.233	915.964	31.3027	84.2363	884.275	116.118
122	0.508	-126.789	1541.34	-49.5044	31.2926	1363.12	-143.414	93.632	1143.77	132.075	163.043	840.207	19.0681	99.2348	1018.3	146.515	24.6618	1481.41	64.9136	60.7647	1321.53	132.148	117.241	915.964	31.3148	84.2403	884.286	116.136
123	0.513	-126.786	1541.33	-49.5219	31.2949	1363.12	-143.416	93.6415	1143.77	132.085	163.049	840.205	19.0903	99.229	1018.29	146.536	24.6607	1481.41	64.9025	60.7662	1321.53	132.146	117.24	915.961	31.3357	84.2459	884.297	116.158
124	0.517	-126.784	1541.33	-49.5327	31.2974	1363.11	-143.41	93.6401	1143.78	132.109	163.051	840.207	19.1067	99.2233	1018.3	146.55	24.6628	1481.4	64.9028	60.7672	1321.54	132.161	117.239	915.948	31.3587	84.2474	884.307	116.185
125	0.521	-126.776	1541.33	-49.5384	31.2948	1363.1	-143.409	93.6203	1143.78	132.119	163.054	840.207	19.1324	99.2308	1018.31	146.562	24.658	1481.41	64.9	60.7591	1321.55	132.172	117.239	915.949	31.3814	84.251	884.31	116.198
126	0.525	-126.775	1541.33	-49.5498	31.3039	1363.1	-143.411	93.6171	1143.78	132.125	163.056	840.22	19.1522	99.2295	1018.33	146.572	24.6486	1481.42	64.8963	60.7612	1321.56	132.17	117.244	915.964	31.3901	84.248	884.323	116.211
127	0.529	-126.78	1541.34	-49.5586	31.3058	1363.12	-143.421	93.6202	1143.8	132.125	163.068	840.241	19.1653	99.227	1018.34	146.578	24.651	1481.44	64.8882	60.7507	1321.57	132.167	117.252	915.983	31.3981	84.2453	884.335	116.217
128	0.533	-126.78	1541.35	-49.5697	31.3206	1363.14	-143.437	93.6305	1143.82	132.139	163.071	840.209	19.2101	99.22	1018.34	146.587	24.646	1481.45	64.8828	60.7511	1321.58	132.154	117.257	915.992	31.4154	84.2497	884.345	116.217
129	0.538	-126.774	1541.36	-49.5752	31.3125	1363.13	-143.425	93.6311	1143.83	132.15	163.07	840.252	19.2044	99.2184	1018.35	146.607	24.6466	1481.47	64.8829	60.7471	1321.59	132.152	117.254	915.998	31.4246	84.2507	884.364	116.231
130	0.542	-126.771	1541.37	-49.582	31.3062	1363.13	-143.412	93.6176	1143.84	132.147	163.075	840.259	19.2202	99.215	1018.36	146.618	24.6453	1481.48	64.8848	60.7474	1321.6	132.166	117.243	915.993	31.4504	84.2553	884.376	116.251
131	0.546	-126.764	1541.37	-49.6094	31.3115	1363.13	-143.405	93.6214	1143.84	132.163	163.078	840.271	19.2448	99.2133	1018.37	146.628	24.638	1481.49	64.8864	60.7469	1321.61	132.172	117.241	915.994	31.467	84.2546	884.382	116.262
132	0.55	-126.76	1541.37	-49.6196	31.3123	1363.13	-143.402	93.6186	1143.85	132.164	163.092	840.244	19.2912	99.233	1018.38	146.623	24.6348	1481.49	64.8793	60.7369	1321.62	132.167	117.245	915.993	31.4649	84.2508	884.384	116.266
133	0.554	-126.773	1541.38	-49.6059	31.319	1363.14	-143.4	93.6191	1143.86	132.153	163.104	840.257	19.3094	99.2278	1018.38	146.621	24.6354	1481.5	64.8731	60.7374	1321.62	132.154	117.254	916.009	31.4722	84.2488	884.389	116.275
134	0.558	-126.772	1541.37	-49.6563	31.3243	1363.16	-143.411	93.6111	1143.86	132.146	163.114	840.269	19.3101	99.2387	1018.4	146.616	24.6333	1481.5	64.8621	60.7313	1321.63	132.145	117.265	916.018	31.4682	84.2536	884.396	116.27
